<?xml version="1.0" encoding="utf-8"?>
<!-- Generator: Adobe Illustrator 22.0.1, SVG Export Plug-In . SVG Version: 6.00 Build 0)  -->
<svg version="1.1" id="Calque_1" xmlns="http://www.w3.org/2000/svg" xmlns:xlink="http://www.w3.org/1999/xlink" x="0px" y="0px"
	 viewBox="0 0 905.5 260.9" style="enable-background:new 0 0 905.5 260.9;" xml:space="preserve">
<style type="text/css">
	.st0{fill:#FFFFFF;}
	.st1{fill:#F9EB30;}
	.st2{fill:#FDC031;}
</style>
<g>
	<g>
		<g id="reply_1_">
			<path class="st0" d="M121.8,77.2V15.8L14.5,123.2l107.3,107.3v-62.9c76.6,0,130.3,24.5,168.6,78.2
				C275.1,169.1,229.1,92.5,121.8,77.2z"/>
		</g>
	</g>
</g>
<g>
	<g>
		<g id="reply_2_">
			<path class="st1" d="M421.8,78V15.8L313,124.7l108.8,108.8v-63.7c77.7,0,132.1,24.9,170.9,79.2C577.2,171.2,530.6,93.6,421.8,78z
				"/>
		</g>
	</g>
</g>
<g>
	<g>
		<g id="reply_3_">
			<path class="st2" d="M723.5,77.7V15.8L615.3,124.1l108.2,108.2v-63.4c77.3,0,131.4,24.7,170,78.8
				C878,170.4,831.6,93.2,723.5,77.7z"/>
		</g>
	</g>
</g>
</svg>
